<?xml version="1.0" standalone="no"?>
<!DOCTYPE svg PUBLIC "-//W3C//DTD SVG 20010904//EN"
 "http://www.w3.org/TR/2001/REC-SVG-20010904/DTD/svg10.dtd">
<svg version="1.0" xmlns="http://www.w3.org/2000/svg"
 width="1282.000000pt" height="809.000000pt" viewBox="0 0 1282.000000 809.000000"
 preserveAspectRatio="xMidYMid meet">

<g transform="translate(0.000000,809.000000) scale(0.100000,-0.100000)"
fill="#000000" stroke="none">
<path d="M3178 8043 c-19 -26 -112 -165 -208 -308 -95 -143 -237 -354 -315
-470 -78 -115 -262 -390 -410 -610 -148 -220 -351 -523 -452 -673 -126 -186
-183 -280 -181 -295 2 -12 15 -28 30 -37 26 -14 29 -13 49 6 22 22 153 214
554 809 132 196 247 361 257 366 9 5 326 9 740 9 564 0 728 -3 740 -12 9 -7
173 -247 364 -533 439 -656 434 -649 465 -652 13 -2 31 3 40 10 42 32 37 41
-200 393 -126 186 -349 517 -496 734 -450 667 -778 1152 -831 1231 -42 61 -56
75 -81 77 -26 3 -35 -3 -65 -45z"/>
<path d="M6708 8073 c-8 -10 -63 -90 -121 -178 -59 -88 -137 -205 -175 -260
-63 -93 -177 -262 -985 -1467 -169 -251 -307 -465 -307 -476 0 -10 9 -27 20
-37 29 -26 59 -9 106 62 l39 58 5 -1720 c3 -946 6 -1720 8 -1720 1 0 17 1 34
2 18 1 90 2 161 2 l127 1 0 30 c0 19 9 40 25 55 l24 25 371 0 371 0 24 -25
c35 -34 34 -88 -1 -120 l-27 -25 -367 0 -367 0 -28 26 c-31 29 -36 27 -41 -17
-3 -27 -2 -30 12 -19 12 10 12 15 2 21 -7 4 -9 11 -5 15 4 4 15 0 25 -10 16
-16 16 -18 0 -30 -15 -11 -14 -13 13 -13 19 0 25 3 17 9 -17 11 752 5 777 -6
l20 -9 -20 16 c-19 15 -19 17 -3 33 10 10 21 14 25 10 5 -5 2 -11 -4 -13 -17
-6 -16 -20 2 -27 12 -4 14 2 10 34 l-5 40 842 1 c464 0 851 2 861 4 9 2 18 -2
18 -8 5 -42 18 99 18 196 l1 117 55 0 55 0 0 595 0 594 -25 25 c-21 21 -25 34
-25 86 0 47 4 64 20 80 20 20 33 20 874 20 l854 0 40 83 c22 45 60 104 86 131
l46 49 0 87 c0 76 10 133 35 193 7 16 -45 17 -1007 17 -558 0 -1017 2 -1019 4
-2 2 -3 264 -1 581 3 636 -1 604 62 505 36 -57 61 -68 95 -46 43 28 32 57 -78
219 -57 84 -180 265 -273 402 l-169 250 -5 451 -5 451 -24 35 c-43 62 -85 83
-166 83 -63 0 -77 -4 -114 -29 -70 -49 -81 -83 -81 -241 0 -100 -3 -136 -12
-133 -12 4 -74 95 -433 628 -110 162 -205 301 -211 308 -18 18 -58 15 -76 -5z
m2 -1773 l0 -150 -150 0 -150 0 0 130 c0 117 2 132 20 150 18 18 33 20 150 20
l130 0 0 -150z m308 134 c21 -14 22 -22 22 -150 l0 -134 -155 0 -155 0 0 150
0 150 133 0 c104 0 137 -3 155 -16z m-315 -303 c4 -1 7 -35 7 -76 0 -67 -2
-75 -19 -75 -10 0 -29 -9 -42 -19 -23 -18 -23 -20 -6 -38 23 -26 22 -33 -6
-33 -13 0 -32 -9 -42 -20 -21 -23 -75 -27 -75 -6 0 30 21 67 42 75 23 9 23 9
-5 20 -38 15 -47 14 -82 -9 -59 -39 -65 -32 -65 79 0 57 4 101 10 103 8 2 254
2 283 -1z m250 1 l87 -2 0 -95 c0 -85 -2 -95 -21 -105 -16 -9 -24 -8 -39 5
-19 17 -29 17 -133 -1 -20 -3 -40 -10 -43 -15 -3 -5 -21 7 -40 27 -32 35 -34
40 -34 110 0 82 -2 80 90 78 25 0 84 -1 133 -2z m40 -256 c18 -14 18 -14 0
-19 -31 -9 -83 -6 -83 4 0 9 35 27 55 28 6 0 18 -6 28 -13z m-409 -95 c4 -5 0
-12 -6 -15 -7 -3 -3 -3 10 0 13 3 22 1 22 -6 0 -7 7 -10 15 -7 8 4 17 2 20 -3
4 -6 1 -10 -4 -10 -6 0 -11 -4 -11 -10 0 -20 21 -9 30 15 11 28 20 33 20 10 0
-22 -37 -55 -62 -55 -31 0 -58 29 -58 62 0 27 13 37 24 19z m-554 -721 l0
-150 -150 0 -150 0 0 121 c0 66 5 129 11 140 16 31 45 38 172 38 l117 1 0
-150z m294 139 c36 -17 47 -61 45 -183 l-1 -106 -159 0 -159 0 0 150 0 150
125 0 c72 0 135 -5 149 -11z m1156 -159 l0 -150 -150 0 -150 0 0 129 c0 128 0
130 26 150 24 19 40 21 150 21 l124 0 0 -150z m293 139 c12 -7 25 -17 29 -23
4 -6 8 -68 8 -138 l0 -128 -155 0 -155 0 0 150 0 150 126 0 c75 0 134 -5 147
-11z m-1743 -379 c0 -88 0 -90 -24 -90 -13 0 -34 -8 -46 -18 -20 -16 -21 -19
-6 -31 9 -7 16 -20 16 -28 0 -7 6 -13 13 -12 33 4 47 -2 47 -22 0 -11 5 -29
10 -40 9 -16 6 -24 -16 -44 -15 -14 -30 -22 -33 -18 -3 5 -13 9 -21 11 -27 6
-42 25 -37 49 4 22 1 23 -45 23 l-49 0 3 37 c2 28 9 41 27 49 23 12 23 12 3
23 -31 16 -64 13 -92 -9 -46 -36 -50 -29 -50 95 l0 115 150 0 150 0 0 -90z
m339 -16 c-3 -103 -3 -106 -29 -119 -23 -12 -30 -12 -49 1 -27 19 -62 19 -130
1 l-55 -15 -28 30 c-26 28 -28 35 -28 119 l0 89 161 0 160 0 -2 -106z m1111
-4 c0 -83 -2 -90 -20 -90 -22 0 -70 -20 -70 -29 0 -3 7 -15 15 -25 8 -11 15
-30 15 -43 0 -21 -5 -23 -52 -24 -55 -1 -81 1 -86 6 -13 12 13 64 36 75 25 12
26 13 7 21 -38 15 -75 9 -99 -14 -39 -39 -46 -25 -46 99 l0 114 150 0 150 0 0
-90z m330 -19 c0 -106 -1 -109 -24 -115 -13 -3 -40 1 -60 9 -31 13 -42 13 -92
0 -31 -8 -62 -19 -68 -24 -8 -7 -18 -1 -31 20 -11 16 -23 29 -27 29 -5 0 -8
43 -8 95 l0 95 155 0 155 0 0 -109z m-365 -91 c-3 -5 -12 -10 -18 -10 -7 0 -6
4 3 10 19 12 23 12 15 0z m-1141 -65 c18 -14 16 -15 -27 -15 -37 0 -45 3 -41
15 8 19 43 19 68 0z m1400 -20 c-11 -17 -14 -35 -10 -59 6 -30 3 -37 -18 -51
-16 -10 -33 -14 -51 -9 -20 5 -23 9 -13 15 10 7 9 9 -3 9 -9 0 -20 7 -23 16
-4 9 -2 13 5 8 7 -4 9 0 5 14 -9 26 17 52 52 52 15 0 36 7 46 15 27 21 29 19
10 -10z m-204 -1085 l0 -150 -149 0 -148 0 -5 58 c-3 31 -2 92 1 134 9 105 12
107 174 108 l127 0 0 -150z m293 139 c12 -7 25 -17 29 -23 4 -6 8 -68 8 -138
l0 -128 -155 0 -155 0 0 150 0 150 126 0 c75 0 134 -5 147 -11z m-1253 -129
c0 -5 -9 -14 -20 -20 -22 -12 -65 4 -55 21 8 12 75 12 75 -1z m960 -265 c0
-79 -1 -85 -20 -85 -26 0 -80 -27 -80 -40 0 -6 6 -10 14 -10 8 0 18 -9 21 -20
3 -11 14 -20 24 -20 23 0 61 -36 61 -58 0 -14 -9 -17 -41 -17 -23 0 -44 -6
-48 -14 -12 -19 -31 -4 -31 25 0 22 -4 24 -50 24 -48 0 -50 1 -50 27 0 30 25
63 49 63 13 1 13 3 -3 15 -28 21 -69 19 -99 -5 -50 -40 -56 -28 -49 103 l5 97
148 0 149 0 0 -85z m330 -18 l0 -103 -27 -10 c-21 -7 -36 -5 -60 7 -28 14 -39
15 -88 4 -31 -8 -62 -18 -68 -24 -9 -7 -20 -1 -40 24 -25 31 -27 41 -27 119
l0 86 155 0 155 0 0 -103z m-57 -171 c16 -13 16 -14 -5 -20 -34 -9 -88 -7 -88
2 0 11 39 31 60 31 8 0 23 -6 33 -13z"/>
<path d="M6590 5730 c6 -11 15 -20 20 -20 6 0 5 9 -2 20 -7 11 -16 20 -21 20
-4 0 -3 -9 3 -20z"/>
<path d="M5964 4586 c-9 -10 -5 -13 17 -13 16 0 29 5 29 10 0 6 -3 7 -7 4 -3
-4 -11 -3 -17 2 -7 5 -15 4 -22 -3z"/>
<path d="M5950 4541 c0 -12 5 -21 10 -21 6 0 10 6 10 14 0 8 -4 18 -10 21 -5
3 -10 -3 -10 -14z"/>
<path d="M6011 4534 c0 -11 3 -14 6 -6 3 7 2 16 -1 19 -3 4 -6 -2 -5 -13z"/>
<path d="M7640 4560 c0 -5 5 -10 10 -10 6 0 10 5 10 10 0 6 -4 10 -10 10 -5 0
-10 -4 -10 -10z"/>
<path d="M7630 4480 c0 -5 5 -10 11 -10 5 0 7 5 4 10 -3 6 -8 10 -11 10 -2 0
-4 -4 -4 -10z"/>
<path d="M7465 3031 c3 -5 -3 -12 -12 -14 -14 -4 -14 -5 3 -6 12 0 24 6 28 14
3 9 0 15 -10 15 -8 0 -13 -4 -9 -9z"/>
<path d="M7411 3004 c0 -11 3 -14 6 -6 3 7 2 16 -1 19 -3 4 -6 -2 -5 -13z"/>
<path d="M12800 4055 l0 -4035 -357 1 c-332 1 -361 4 -253 23 57 10 160 48
194 71 20 14 41 25 47 25 6 0 7 4 4 10 -3 5 -1 10 5 10 23 0 130 90 130 110 0
5 5 10 10 10 20 0 123 189 135 248 1 9 8 36 14 59 7 24 10 87 7 150 -4 118
-34 220 -91 319 -33 57 -187 213 -230 233 -16 8 -51 25 -78 38 -26 13 -57 26
-70 27 -12 2 -29 6 -37 9 -70 24 -176 27 -1085 27 l-960 0 -22 182 c-26 227
-43 368 -52 432 -3 28 -12 51 -19 54 -11 3 -12 0 -3 -16 6 -12 14 -56 17 -99
3 -43 10 -95 16 -117 6 -26 6 -42 -1 -49 -6 -6 -10 -40 -9 -77 1 -48 2 -54 5
-22 2 23 8 42 14 42 5 0 10 -19 10 -42 3 -82 6 -113 17 -192 7 -43 9 -82 6
-87 -3 -5 -344 -9 -787 -10 -430 -1 -846 -4 -924 -8 -77 -3 -139 -3 -137 1 3
5 -1653 8 -3680 8 -2027 0 -3686 -4 -3686 -8 0 -5 -15 -9 -32 -10 -18 0 -34
-5 -36 -11 -2 -5 -9 -8 -16 -5 -7 3 -55 -16 -107 -42 -75 -38 -110 -64 -175
-129 -72 -71 -117 -131 -113 -151 0 -4 -4 -10 -9 -13 -14 -9 -43 -82 -36 -92
3 -5 0 -9 -6 -9 -7 0 -10 -6 -7 -14 3 -8 2 -16 -4 -18 -18 -6 -31 -167 -19
-260 11 -97 14 -105 73 -227 80 -165 256 -308 427 -347 19 -4 44 -10 55 -12
11 -3 812 -8 1780 -11 l1760 -6 -2242 -3 c-1487 -1 -2243 -5 -2243 -12 0 -7
2143 -10 6410 -10 l6410 0 0 4045 c0 2690 -3 4045 -10 4045 -7 0 -10 -1352
-10 -4035z m-2673 -2307 c-3 -8 -6 -5 -6 6 -1 11 2 17 5 13 3 -3 4 -12 1 -19z
m-8257 -998 c24 -24 25 -49 6 -76 -14 -18 -32 -19 -416 -22 -446 -3 -450 -2
-450 58 0 60 3 60 442 60 385 0 399 -1 418 -20z m1655 6 c17 -12 20 -33 13
-90 -1 -12 -66 -15 -412 -15 -454 -2 -456 -2 -456 59 0 60 3 60 440 60 318 0
400 -3 415 -14z m1861 -11 c9 -12 13 -30 9 -45 -3 -14 -6 -30 -7 -37 -1 -9
-103 -12 -412 -13 -454 -1 -456 0 -456 60 0 61 2 61 448 58 390 -3 404 -4 418
-23z m1631 14 c47 -18 57 -55 23 -89 -19 -19 -33 -20 -418 -20 -439 0 -442 0
-442 60 0 59 5 60 427 60 245 0 392 -4 410 -11z m1733 -9 c11 -11 20 -29 20
-40 0 -11 -9 -29 -20 -40 -19 -19 -33 -20 -418 -20 -444 0 -446 0 -440 63 5
56 13 57 446 57 379 0 393 -1 412 -20z m39 -14 c-3 -3 -11 5 -18 17 -13 21
-12 21 5 5 10 -10 16 -20 13 -22z m1677 10 c19 -27 18 -52 -6 -76 -19 -19 -33
-20 -418 -20 -444 0 -446 0 -440 63 5 56 12 57 451 54 382 -2 399 -3 413 -21z
m1737 13 c28 -13 44 -56 28 -72 -15 -15 -14 -30 1 -21 6 4 8 3 4 -4 -4 -7
-134 -11 -425 -12 -461 -1 -451 -2 -451 60 0 59 4 59 431 60 271 0 395 -3 412
-11z m-10295 -24 c-3 -3 -9 2 -12 12 -6 14 -5 15 5 6 7 -7 10 -15 7 -18z
m5952 -10 c0 -5 -5 -3 -10 5 -5 8 -10 20 -10 25 0 6 5 3 10 -5 5 -8 10 -19 10
-25z m-6 -61 c3 -8 2 -12 -4 -9 -6 3 -10 10 -10 16 0 14 7 11 14 -7z"/>
<path d="M2909 6441 l-29 -29 0 -249 c0 -148 -4 -253 -10 -259 -5 -5 -11 -18
-13 -29 -2 -11 -7 -27 -11 -35 -3 -9 6 -47 22 -85 l29 -70 325 -3 326 -2 21
62 c11 35 23 84 26 109 6 42 4 48 -19 66 l-26 21 0 237 0 237 -29 29 -29 29
-277 0 -277 0 -29 -29z m291 -141 l0 -150 -150 0 -150 0 0 130 c0 117 2 132
20 150 18 18 33 20 150 20 l130 0 0 -150z m310 130 c18 -18 20 -33 20 -150 l0
-130 -155 0 -155 0 0 150 0 150 135 0 c122 0 137 -2 155 -20z m-310 -375 c0
-67 -2 -75 -19 -75 -10 0 -29 -9 -42 -19 -23 -18 -23 -20 -6 -38 23 -26 22
-33 -6 -33 -13 0 -32 -9 -42 -20 -21 -24 -60 -26 -69 -5 -3 8 0 28 6 43 6 15
11 30 10 33 -1 4 9 5 21 2 22 -4 22 -4 2 12 -23 19 -78 14 -105 -10 -9 -8 -24
-15 -33 -15 -15 0 -17 13 -17 100 l0 100 150 0 150 0 0 -75z m330 -20 c0 -84
-2 -95 -20 -105 -16 -8 -26 -7 -42 5 -33 23 -67 20 -163 -15 -14 -5 -26 1 -43
22 -14 16 -30 27 -36 25 -8 -3 -10 21 -8 79 l3 84 155 0 154 0 0 -95z m-69
-172 c10 4 9 6 -3 6 -10 1 -18 5 -18 10 0 10 14 9 43 -4 32 -14 17 -25 -33
-25 -48 0 -50 1 -40 21 11 19 12 19 24 3 7 -9 19 -14 27 -11z m-346 -105 c11
-1 23 -7 27 -13 5 -6 8 -5 8 3 0 6 5 12 10 12 18 0 10 -29 -12 -44 -25 -18
-68 -21 -68 -6 0 9 22 15 43 11 5 -1 6 3 3 8 -4 6 -18 6 -35 1 -25 -7 -30 -5
-34 12 -3 11 -3 26 0 34 5 13 8 13 22 0 9 -8 25 -16 36 -18z"/>
<path d="M3070 5750 c0 -5 5 -10 11 -10 5 0 7 5 4 10 -3 6 -8 10 -11 10 -2 0
-4 -4 -4 -10z"/>
<path d="M2233 5196 l-28 -24 0 -259 c0 -234 -2 -259 -17 -271 -10 -7 -18 -23
-18 -36 0 -12 -5 -27 -10 -32 -7 -7 -2 -34 18 -85 l28 -74 326 -3 326 -2 23
67 c32 98 35 147 10 172 -20 20 -21 32 -21 271 l0 251 -25 24 -24 25 -280 0
-280 0 -28 -24z m291 -138 l1 -148 -137 0 c-75 0 -143 -3 -152 -6 -14 -5 -16
9 -16 121 0 70 5 135 11 146 17 32 46 38 173 36 l118 -2 2 -147z m290 141 c13
-7 30 -24 36 -38 12 -29 10 -251 -2 -251 -5 0 -75 0 -158 0 l-150 0 0 150 0
150 125 0 c71 0 135 -5 149 -11z m-289 -401 l2 -88 -27 0 c-15 0 -38 -8 -51
-19 -22 -17 -22 -19 -6 -36 12 -11 16 -28 13 -51 -3 -31 -1 -34 18 -29 15 5
17 4 7 -3 -8 -6 -11 -17 -7 -27 8 -21 11 -18 20 18 5 20 3 27 -9 27 -8 0 -15
7 -15 15 0 16 18 20 36 7 6 -4 16 -23 23 -42 11 -32 10 -37 -10 -52 -28 -24
-62 -23 -84 2 -22 25 -14 37 9 14 9 -9 20 -14 23 -11 7 8 -22 37 -38 37 -8 0
-8 4 1 15 7 9 10 18 6 22 -3 3 -6 1 -6 -5 0 -8 -18 -12 -49 -12 -38 0 -50 4
-53 18 -8 27 9 62 34 71 l22 8 -21 12 c-31 16 -53 14 -91 -9 -18 -11 -37 -20
-42 -20 -6 0 -10 47 -10 115 l0 116 151 -3 151 -3 3 -87z m335 -13 l0 -104
-29 -15 c-25 -13 -31 -13 -47 -1 -24 18 -66 19 -134 1 l-55 -15 -27 30 c-26
28 -28 36 -28 120 l0 89 160 0 160 0 0 -105z m-387 -109 c4 -10 1 -13 -8 -9
-8 3 -12 9 -9 14 7 12 11 11 17 -5z m321 -71 c18 -14 16 -15 -27 -15 -44 0
-62 12 -34 23 22 9 42 7 61 -8z"/>
<path d="M3710 5199 c-58 -23 -60 -31 -60 -307 0 -232 -2 -255 -19 -280 -31
-44 -32 -72 -3 -147 l28 -70 324 0 325 0 21 60 c36 98 39 143 15 176 -20 27
-21 41 -21 269 0 154 -4 249 -11 262 -23 42 -63 48 -326 47 -137 0 -259 -5
-273 -10z m260 -159 l0 -150 -150 0 -150 0 0 129 c0 128 0 130 26 150 24 19
40 21 150 21 l124 0 0 -150z m293 139 c12 -7 25 -17 29 -23 4 -6 8 -68 8 -138
l0 -128 -155 0 -155 0 0 150 0 150 126 0 c75 0 134 -5 147 -11z m-293 -399 l0
-90 -28 0 c-16 0 -36 -8 -45 -17 -13 -16 -14 -20 -1 -37 15 -21 19 -65 7 -67
-101 -10 -133 -4 -133 23 0 10 12 31 26 45 20 20 23 28 12 34 -23 15 -64 10
-91 -11 -44 -35 -47 -28 -47 95 l0 115 150 0 150 0 0 -90z m330 -19 c0 -106
-1 -109 -24 -115 -13 -3 -40 1 -60 9 -31 13 -42 13 -92 0 -31 -8 -66 -23 -77
-32 -11 -10 -17 -12 -13 -5 9 16 -12 44 -27 35 -5 -3 -7 -1 -3 5 3 6 2 13 -4
17 -6 3 -10 47 -10 101 l0 94 155 0 155 0 0 -109z m-365 -101 c3 -6 -1 -7 -9
-4 -18 7 -21 14 -7 14 6 0 13 -4 16 -10z m250 -115 c-2 -30 -8 -62 -15 -70
-16 -20 -49 -19 -72 2 -23 21 -24 40 0 22 16 -13 16 -13 0 7 -10 11 -18 24
-18 29 0 19 35 45 61 45 15 0 31 5 34 10 11 18 12 11 10 -45z"/>
<path d="M4134 4519 c-3 -6 -2 -15 4 -21 6 -6 11 -2 15 11 5 22 -7 29 -19 10z"/>
<path d="M4161 4494 c0 -11 3 -14 6 -6 3 7 2 16 -1 19 -3 4 -6 -2 -5 -13z"/>
<path d="M2269 3741 l-24 -19 -3 -636 -2 -636 295 0 295 0 0 629 0 628 -25 27
-24 26 -244 0 c-226 0 -247 -1 -268 -19z"/>
<path d="M3733 3663 c-13 -2 -32 -16 -43 -30 -19 -24 -20 -40 -20 -279 0 -219
-2 -254 -16 -262 -8 -5 -20 -27 -25 -50 -7 -33 -5 -51 11 -92 11 -28 20 -53
20 -55 0 -3 -54 -5 -120 -5 -66 0 -120 2 -120 4 0 2 7 23 16 47 9 27 13 59 10
81 -7 44 10 58 68 58 25 0 36 4 36 15 0 11 -13 15 -53 15 -47 0 -56 -3 -75
-29 -17 -24 -19 -34 -11 -57 9 -24 4 -48 -24 -134 -35 -104 -35 -105 -63 -100
-68 12 -169 5 -208 -14 -88 -44 -138 -122 -144 -227 -3 -51 1 -77 16 -111 59
-135 188 -195 328 -153 99 29 178 144 177 257 -1 70 -39 157 -84 190 -28 21
-38 51 -21 62 14 8 246 -282 254 -316 3 -17 13 -35 21 -39 18 -11 30 -54 22
-79 -5 -17 -19 -20 -98 -23 -51 -1 -20 -3 68 -3 88 0 144 1 124 3 -43 5 -64
25 -72 69 -7 36 11 58 54 69 25 6 29 2 51 -47 32 -69 88 -124 140 -140 22 -6
36 -14 29 -16 -22 -7 -10 -19 22 -19 26 -1 28 1 12 7 -14 6 -4 9 35 9 183 3
305 185 244 364 -18 52 -76 116 -132 143 -49 25 -173 26 -220 2 l-33 -17 -34
47 -34 47 242 5 242 5 21 60 c12 33 24 81 28 107 6 40 4 50 -13 65 -20 17 -21
28 -21 256 0 272 -4 289 -68 306 -35 10 -491 13 -539 4z m257 -163 l0 -150
-150 0 -150 0 0 130 c0 117 2 132 20 150 18 18 33 20 150 20 l130 0 0 -150z
m304 129 c26 -20 26 -22 26 -150 l0 -129 -155 0 -155 0 0 150 0 150 129 0
c115 0 131 -2 155 -21z m-304 -384 l0 -85 -29 0 c-26 0 -61 -21 -61 -37 0 -3
9 -17 20 -33 11 -15 17 -30 14 -32 -2 -3 7 -3 22 0 21 4 25 2 19 -8 -6 -10 -4
-12 8 -7 9 3 19 2 22 -4 4 -5 -2 -12 -12 -16 -10 -4 -23 -13 -29 -21 -7 -10
-20 -12 -42 -7 -33 7 -41 20 -19 28 6 3 -17 6 -52 6 l-64 1 6 36 c6 36 33 66
52 57 5 -2 1 3 -9 11 -27 22 -68 20 -99 -4 -49 -39 -53 -30 -49 106 l3 94 150
0 149 0 0 -85z m330 -17 c0 -102 0 -103 -27 -115 -22 -10 -30 -10 -42 1 -9 7
-26 16 -37 18 -25 6 -123 -17 -138 -32 -14 -14 -26 -12 -26 3 0 8 -9 22 -20
32 -17 16 -20 31 -20 107 l0 88 155 0 155 0 0 -102z m-64 -168 c36 -14 24 -23
-31 -24 -47 -1 -53 2 -33 22 15 15 29 15 64 2z m-246 -54 c0 -11 -19 -15 -25
-6 -3 5 1 10 9 10 9 0 16 -2 16 -4z m-234 -163 c-3 -10 -21 -72 -40 -138 -19
-66 -39 -131 -44 -144 -9 -24 -9 -24 -14 -3 -4 12 -2 25 3 28 19 11 8 24 -21
24 -16 0 -30 -4 -30 -10 0 -5 4 -10 9 -10 9 0 25 -49 18 -57 -9 -9 -258 299
-253 313 4 11 40 14 191 14 173 0 186 -1 181 -17z m69 -43 l37 -50 -31 -39
c-42 -53 -61 -101 -61 -155 0 -44 -1 -45 -35 -52 -20 -3 -39 -4 -42 0 -5 4 88
346 94 346 1 0 18 -22 38 -50z m-537 -51 l31 -11 -19 -51 c-19 -51 -74 -117
-96 -117 -16 0 -24 -23 -14 -40 11 -17 19 -12 73 46 27 29 54 72 63 98 l16 47
25 -23 c82 -77 89 -212 15 -298 -106 -125 -306 -101 -373 45 -22 47 -25 132
-6 178 46 108 174 165 285 126z m861 -22 c64 -43 95 -97 99 -177 5 -75 -14
-124 -65 -172 -86 -82 -234 -78 -314 9 -27 28 -63 92 -57 98 8 8 203 43 215
38 25 -10 26 27 1 55 -37 41 -108 140 -108 151 0 18 55 30 121 28 53 -2 75 -8
108 -30z m-200 -93 c29 -41 52 -77 50 -78 -2 -2 -33 -8 -69 -15 -36 -6 -77
-14 -92 -17 -27 -5 -28 -4 -28 36 0 22 7 55 16 73 17 33 53 77 63 76 3 0 30
-34 60 -75z"/>
<path d="M2954 3592 c-13 -8 -34 -46 -34 -61 0 -7 27 -11 70 -11 63 0 70 2 70
20 0 43 -69 77 -106 52z"/>
<path d="M10080 3042 l0 -392 58 0 58 0 -4 128 c-5 152 4 194 58 255 39 44 40
46 40 124 0 73 -2 81 -22 90 -33 15 -127 101 -160 147 l-28 39 0 -391z"/>
<path d="M2892 3083 c2 -10 10 -18 18 -18 8 0 16 8 18 18 2 12 -3 17 -18 17
-15 0 -20 -5 -18 -17z"/>
<path d="M4490 2340 l-215 -6 218 -2 c139 -1 217 2 217 8 0 6 -1 9 -2 8 -2 -1
-100 -5 -218 -8z"/>
<path d="M810 2310 c-30 -29 -37 -41 -22 -39 18 3 33 -2 28 -9 -3 -5 9 -9 26
-9 26 0 28 2 15 12 -12 9 -14 14 -5 23 9 9 8 12 -5 12 -9 0 -17 5 -17 11 0 7
10 9 26 5 17 -5 23 -3 19 4 -4 6 20 10 70 10 l77 0 -4 -90 c-1 -50 0 -90 5
-90 15 0 6 -34 -15 -53 -18 -16 -19 -19 -5 -14 16 6 17 2 11 -28 -8 -44 -7
-28 -6 -232 1 -95 6 -173 10 -173 4 0 6 72 4 160 l-4 160 36 0 36 0 0 -100 c0
-60 4 -100 10 -100 6 0 10 40 10 100 l0 100 495 0 495 0 0 -100 c0 -60 4 -100
10 -100 6 0 10 40 10 100 l0 100 36 0 37 0 -5 -160 c-3 -88 -1 -160 3 -160 12
0 15 354 3 408 l-4 22 3067 2 c1688 2 2419 4 1626 5 -951 2 -1443 6 -1443 13
0 7 490 10 1440 10 953 0 1440 3 1440 10 0 7 -487 10 -1440 10 -953 0 -1440
-3 -1440 -10 0 -7 -167 -10 -480 -10 -311 0 -480 -3 -480 -10 0 -6 -398 -11
-1150 -12 -906 -2 -1147 0 -1133 9 35 24 43 34 43 53 0 11 -5 20 -11 20 -6 0
-9 -9 -6 -20 4 -14 0 -20 -11 -20 -10 0 -27 -3 -39 -6 -13 -4 -23 -2 -23 4 0
6 10 13 23 15 22 4 22 4 0 6 -15 1 -21 7 -20 21 1 11 5 20 9 20 4 0 8 5 8 10
0 6 -11 10 -25 10 -14 0 -25 5 -25 11 0 6 9 9 20 6 11 -3 27 2 35 10 13 13 70
15 388 15 204 0 366 2 360 5 -21 8 -14 25 7 18 13 -4 20 -2 21 7 1 7 2 20 3
28 1 11 13 15 45 15 35 0 45 -4 47 -18 4 -26 12 -33 26 -19 9 9 8 12 -8 13
-10 0 -13 3 -7 6 26 10 -15 33 -59 33 -32 0 -46 -5 -55 -19 -10 -15 -10 -21 0
-24 7 -3 -148 -5 -343 -6 -219 -1 -356 -5 -358 -11 -2 -6 -13 -10 -25 -10 -12
0 -30 -7 -40 -14 -13 -10 -27 -12 -49 -5 -17 4 -35 6 -39 3 -5 -3 -9 -1 -9 4
0 6 17 10 38 10 20 0 53 4 72 10 l35 10 -36 1 c-25 1 -44 9 -60 26 -24 25 -25
25 -194 23 l-170 -2 166 -3 c151 -3 168 -5 184 -23 26 -29 11 -36 -15 -8 -17
17 -21 19 -17 6 6 -17 -20 -18 -441 -20 -403 -2 -503 -3 -552 -7 -21 -1 -25
-51 -5 -51 17 0 20 -16 5 -25 -7 -4 -2 -15 13 -29 20 -18 37 -23 98 -24 41 -1
76 -7 77 -12 6 -16 802 -13 802 3 0 7 5 5 10 -5 6 -9 7 -23 4 -32 -5 -14 -51
-16 -410 -16 -397 0 -404 0 -404 20 0 16 -7 20 -30 20 -17 0 -30 -5 -30 -12 0
-9 -4 -8 -10 2 -8 12 -10 9 -10 -12 l0 -28 449 0 449 0 4 -25 5 -25 -498 0
-499 0 0 61 c0 56 -13 89 -36 89 -5 0 -3 -5 4 -12 14 -14 16 -48 3 -48 -5 0
-16 -3 -25 -6 -14 -5 -16 8 -16 110 l0 116 -100 0 c-97 0 -100 -1 -130 -30z
m20 -20 c0 -5 -4 -10 -9 -10 -6 0 -13 5 -16 10 -3 6 1 10 9 10 9 0 16 -4 16
-10z m447 -16 c-3 -3 -12 -4 -19 -1 -8 3 -5 6 6 6 11 1 17 -2 13 -5z m1461
-11 c-93 -2 -243 -2 -335 0 -93 1 -17 3 167 3 184 0 260 -2 168 -3z m-651 -42
c0 -11 -4 -18 -8 -16 -3 3 -219 5 -479 5 -378 1 -475 -2 -481 -12 -5 -7 -9 -8
-9 -3 0 34 11 35 496 38 263 1 480 3 481 5 1 1 1 -7 0 -17z m53 -89 c0 -15 -2
-15 -10 -2 -13 20 -13 33 0 25 6 -3 10 -14 10 -23z m-1050 -64 c0 -17 8 -41
18 -52 13 -16 14 -18 1 -8 -16 12 -52 12 -65 -1 -14 -14 -24 -6 -24 18 0 22
44 75 62 75 5 0 8 -14 8 -32z m1088 -6 c6 -9 12 -26 12 -37 0 -18 -6 -22 -29
-21 -16 1 -27 5 -24 10 3 4 -5 5 -18 2 -13 -3 -18 -3 -11 0 6 3 12 18 12 33 0
15 3 30 6 34 9 8 37 -3 52 -21z m-943 -60 c-3 -3 -11 0 -18 7 -9 10 -8 11 6 5
10 -3 15 -9 12 -12z"/>
<path d="M1337 2333 c79 -2 207 -2 285 0 79 1 15 3 -142 3 -157 0 -221 -2
-143 -3z"/>
<path d="M3400 2318 c-14 -13 -54 -33 -90 -45 l-65 -21 68 2 c37 2 70 6 74 10
3 3 1 6 -7 6 -10 0 -10 3 0 15 14 17 35 21 25 5 -10 -16 11 -12 25 5 6 8 9 19
6 24 -4 5 8 12 26 14 l33 4 -36 1 c-24 2 -43 -5 -59 -20z m30 -8 c0 -5 -4 -10
-10 -10 -5 0 -10 5 -10 10 0 6 5 10 10 10 6 0 10 -4 10 -10z"/>
<path d="M3830 2333 c24 -9 64 -43 51 -43 -7 0 -9 -4 -6 -10 3 -5 11 -10 16
-10 6 0 7 5 4 10 -3 6 -1 10 4 10 17 0 13 -18 -6 -29 -14 -8 -10 -9 18 -8 21
1 35 5 33 9 -2 3 2 9 8 12 7 3 2 3 -11 0 -13 -4 -21 -2 -18 3 3 5 -10 17 -29
28 -19 10 -34 22 -34 27 0 4 -10 8 -22 7 -16 0 -18 -2 -8 -6z"/>
<path d="M4226 2324 c-5 -13 -3 -14 6 -7 7 6 20 13 28 16 10 4 8 6 -6 6 -12 1
-25 -6 -28 -15z"/>
<path d="M4863 2333 c82 -2 212 -2 290 0 78 1 12 3 -148 3 -159 0 -223 -2
-142 -3z"/>
<path d="M8822 2333 c339 -2 897 -2 1240 0 343 1 65 2 -617 2 -682 0 -962 -1
-623 -2z"/>
<path d="M10963 2290 c0 -25 2 -35 4 -22 2 12 2 32 0 45 -2 12 -4 2 -4 -23z"/>
<path d="M11015 2218 c2 -62 4 -119 4 -125 1 -7 6 -13 11 -13 6 0 10 48 10
125 0 101 -3 125 -14 125 -12 0 -14 -21 -11 -112z"/>
<path d="M11680 2323 c0 -10 -55 -13 -240 -13 -153 0 -240 -4 -240 -10 0 -16
477 -13 484 3 3 6 5 3 3 -8 -2 -19 -11 -20 -245 -23 -150 -1 -242 -6 -242 -12
0 -6 -27 -10 -60 -10 -54 0 -60 -2 -60 -20 0 -12 7 -32 16 -45 9 -13 14 -30
11 -37 -4 -8 -6 -6 -6 5 -1 9 -6 17 -12 17 -8 0 -9 -14 -5 -43 6 -37 4 -43
-15 -52 -13 -6 -31 -22 -42 -37 -19 -25 -20 -41 -18 -220 1 -106 6 -197 10
-201 4 -4 6 65 3 153 l-5 160 37 0 36 0 0 -100 c0 -65 4 -100 11 -100 6 0 10
12 9 28 -1 15 -2 60 -1 100 l1 72 495 0 495 0 0 -94 c0 -53 4 -98 10 -101 6
-4 10 30 10 94 l0 101 36 0 36 0 -4 -160 c-2 -88 0 -160 4 -160 4 0 9 73 10
163 2 273 5 252 -41 285 -22 15 -42 37 -45 50 -4 12 -13 22 -21 22 -9 0 -12 6
-9 15 5 13 -15 15 -144 15 -103 0 -153 4 -158 12 -7 11 21 38 40 38 6 0 4 -5
-4 -10 -10 -7 35 -10 141 -9 l157 1 -2 24 c-1 26 -10 31 -22 13 -3 -6 -1 -15
6 -19 7 -4 -47 -8 -121 -7 l-134 1 117 3 c94 3 117 7 122 19 5 14 -12 16 -159
13 -117 -3 -165 -1 -165 7 0 7 -16 10 -40 9 -37 -2 -39 -1 -27 14 8 9 16 22
19 30 3 10 6 10 17 -3 12 -14 11 -16 -5 -16 -14 0 -15 -3 -6 -12 10 -10 15
-10 21 1 5 8 14 10 22 6 8 -5 3 4 -11 19 -14 15 -30 24 -39 21 -8 -3 -18 0
-23 7 -6 10 -8 10 -8 1z m-517 -90 c-7 -2 -21 -2 -30 0 -10 3 -4 5 12 5 17 0
24 -2 18 -5z m890 -10 c-7 -2 -19 -2 -25 0 -7 3 -2 5 12 5 14 0 19 -2 13 -5z
m-286 -45 c-3 -8 -17 -13 -33 -12 -16 1 -161 3 -321 3 -186 1 -293 5 -293 11
0 8 635 21 649 13 2 -1 1 -8 -2 -15z m-594 -25 c-7 -2 -19 -2 -25 0 -7 3 -2 5
12 5 14 0 19 -2 13 -5z m577 -8 c7 -8 8 -15 2 -15 -5 0 -15 7 -22 15 -7 8 -8
15 -2 15 5 0 15 -7 22 -15z m303 -2 c-7 -2 -19 -2 -25 0 -7 3 -2 5 12 5 14 0
19 -2 13 -5z m-334 -12 c9 -6 10 -11 2 -15 -6 -4 -11 -2 -11 4 0 7 -7 9 -16 6
-8 -3 -12 -2 -9 4 8 12 16 12 34 1z m367 -9 c7 -4 13 -36 16 -72 l4 -65 -489
3 c-298 1 -494 -1 -501 -7 -8 -7 -10 10 -8 65 l4 74 44 0 c37 0 44 -3 44 -20
0 -19 7 -20 253 -20 144 0 246 4 238 9 -9 6 -10 11 -2 15 6 4 15 4 21 1 5 -3
20 1 32 9 18 13 53 16 178 16 85 0 160 -4 166 -8z m-996 -97 c0 -38 -3 -45
-19 -45 -11 0 -23 -4 -26 -10 -11 -19 -25 -10 -25 15 0 22 49 85 65 85 3 0 5
-20 5 -45z m1074 14 c31 -36 36 -85 9 -74 -10 4 -26 10 -35 12 -14 4 -18 16
-18 49 0 24 4 44 9 44 5 0 21 -14 35 -31z m-291 -76 c-122 -2 -324 -2 -450 0
-125 1 -25 2 222 2 248 0 350 -1 228 -2z m274 1 c-3 -3 -12 -4 -19 -1 -8 3 -5
6 6 6 11 1 17 -2 13 -5z"/>
<path d="M1213 2313 c9 -2 23 -2 30 0 6 3 -1 5 -18 5 -16 0 -22 -2 -12 -5z"/>
<path d="M3738 2313 c7 -3 16 -2 19 1 4 3 -2 6 -13 5 -11 0 -14 -3 -6 -6z"/>
<path d="M4206 2294 c1 -7 -7 -12 -19 -11 -12 0 -47 -7 -77 -16 -37 -10 -46
-16 -29 -16 15 -1 43 6 64 15 20 8 40 13 43 10 2 -3 -6 -10 -19 -15 -13 -5
-18 -10 -10 -10 7 -1 29 8 47 20 35 21 46 36 20 26 -8 -3 -17 -3 -19 1 -2 4
-3 2 -1 -4z"/>
<path d="M3082 2281 c-7 -4 -36 -9 -65 -10 -64 -2 -90 -21 -29 -21 24 0 58 6
77 14 34 15 79 11 69 -5 -3 -5 10 -9 28 -8 18 0 26 3 18 6 -8 2 -29 11 -47 19
-36 16 -34 16 -51 5z"/>
<path d="M3680 2280 c0 -5 9 -10 21 -10 11 0 17 5 14 10 -3 6 -13 10 -21 10
-8 0 -14 -4 -14 -10z"/>
<path d="M3424 2269 c-2 -4 3 -10 12 -13 21 -8 398 -8 419 0 32 13 -5 21 -58
13 -29 -4 -124 -4 -211 0 -87 3 -160 3 -162 0z"/>
<path d="M4216 2261 c-4 -5 52 -10 129 -10 87 -1 135 2 135 9 0 13 -256 14
-264 1z"/>
<path d="M4960 2260 c0 -6 60 -10 160 -10 100 0 160 4 160 10 0 6 -60 10 -160
10 -100 0 -160 -4 -160 -10z"/>
<path d="M8240 2260 c0 -5 18 -10 40 -10 22 0 40 5 40 10 0 6 -18 10 -40 10
-22 0 -40 -4 -40 -10z"/>
<path d="M10080 2260 c0 -6 100 -10 280 -10 180 0 280 4 280 10 0 6 -100 10
-280 10 -180 0 -280 -4 -280 -10z"/>
<path d="M773 2215 c0 -27 2 -38 4 -22 2 15 2 37 0 50 -2 12 -4 0 -4 -28z"/>
<path d="M3088 2253 c7 -3 16 -2 19 1 4 3 -2 6 -13 5 -11 0 -14 -3 -6 -6z"/>
<path d="M3208 2253 c7 -3 16 -2 19 1 4 3 -2 6 -13 5 -11 0 -14 -3 -6 -6z"/>
<path d="M5883 2253 c81 -2 213 -2 295 0 81 1 14 3 -148 3 -162 0 -229 -2
-147 -3z"/>
<path d="M11770 2250 c0 -5 5 -10 11 -10 5 0 7 5 4 10 -3 6 -8 10 -11 10 -2 0
-4 -4 -4 -10z"/>
<path d="M792 2210 c0 -19 2 -27 5 -17 2 9 2 25 0 35 -3 9 -5 1 -5 -18z"/>
<path d="M962 2210 c0 -14 2 -19 5 -12 2 6 2 18 0 25 -3 6 -5 1 -5 -13z"/>
<path d="M2220 2220 c0 -5 5 -10 10 -10 6 0 10 5 10 10 0 6 -4 10 -10 10 -5 0
-10 -4 -10 -10z"/>
<path d="M2880 2180 c0 -5 5 -10 10 -10 6 0 10 5 10 10 0 6 -4 10 -10 10 -5 0
-10 -4 -10 -10z"/>
<path d="M860 2155 c7 -9 15 -13 17 -11 7 7 -7 26 -19 26 -6 0 -6 -6 2 -15z"/>
<path d="M960 2160 c0 -5 5 -10 10 -10 6 0 10 5 10 10 0 6 -4 10 -10 10 -5 0
-10 -4 -10 -10z"/>
<path d="M10170 2160 c0 -5 7 -10 15 -10 8 0 15 5 15 10 0 6 -7 10 -15 10 -8
0 -15 -4 -15 -10z"/>
<path d="M10920 2160 c0 -5 11 -10 25 -10 14 0 25 5 25 10 0 6 -11 10 -25 10
-14 0 -25 -4 -25 -10z"/>
<path d="M779 2147 c7 -9 17 -14 22 -11 16 9 33 -7 18 -18 -9 -5 -4 -6 15 -2
25 6 28 5 21 -15 -6 -20 -3 -21 59 -21 52 0 66 3 66 15 0 8 -4 15 -10 15 -5 0
-10 -4 -10 -10 0 -5 -21 -10 -46 -10 -41 0 -46 2 -41 20 3 11 2 18 -3 15 -4
-3 -13 2 -21 11 -7 8 -22 14 -33 12 -12 -1 -28 2 -36 7 -13 8 -13 7 -1 -8z"/>
<path d="M10180 2120 c0 -5 5 -10 10 -10 6 0 10 -4 10 -10 0 -15 -77 -12 -83
3 -3 7 -6 5 -6 -5 -1 -10 -5 -18 -11 -18 -5 0 -7 7 -4 15 4 8 1 15 -5 15 -6 0
-11 -10 -11 -21 0 -17 4 -20 23 -15 12 3 216 7 452 8 237 1 406 3 378 5 -62 5
-72 23 -13 23 22 0 40 5 40 10 0 6 -18 10 -40 10 -22 0 -40 -4 -40 -10 0 -6
-113 -10 -319 -10 -246 0 -320 -3 -324 -12 -3 -9 -11 -6 -24 10 -22 24 -33 28
-33 12z"/>
<path d="M8316 1723 c-3 -174 -4 -318 -2 -320 2 -3 418 0 923 5 l918 10 -745
-4 c-410 -2 -823 -1 -917 3 l-173 6 0 94 c0 54 4 93 10 93 6 0 9 66 7 178 -1
97 2 194 6 215 6 29 5 37 -6 37 -11 0 -15 -57 -21 -317z"/>
<path d="M8385 1925 c-4 -47 -3 -120 1 -163 8 -69 9 -59 9 86 0 89 -1 162 -2
162 0 0 -4 -38 -8 -85z"/>
<path d="M10084 1915 c2 -39 7 -79 11 -89 6 -13 5 -17 -3 -12 -7 4 -9 -11 -5
-51 7 -75 13 -80 13 -12 0 38 3 50 10 39 13 -19 13 -4 0 40 -5 19 -11 55 -11
81 -1 27 -6 54 -10 61 -4 7 -7 -19 -5 -57z"/>
<path d="M8351 1859 c0 -41 4 -96 9 -124 5 -31 6 -5 2 70 -5 134 -12 168 -11
54z"/>
<path d="M10088 1665 c2 -14 6 -25 8 -25 2 0 4 11 4 25 0 14 -4 25 -9 25 -4 0
-6 -11 -3 -25z"/>
<path d="M10083 1580 c0 -30 2 -43 4 -27 2 15 2 39 0 55 -2 15 -4 2 -4 -28z"/>
<path d="M10112 1615 c-8 -10 -11 -27 -6 -50 9 -51 21 -43 20 15 0 27 -1 50
-1 50 0 -1 -6 -7 -13 -15z"/>
<path d="M8380 1490 c0 -22 5 -40 10 -40 6 0 10 18 10 40 0 22 -4 40 -10 40
-5 0 -10 -18 -10 -40z"/>
<path d="M8698 1433 c78 -2 206 -2 285 0 78 1 14 3 -143 3 -157 0 -221 -2
-142 -3z"/>
</g>
</svg>
